<svg version="1.1" id="Layer_1" xmlns="http://www.w3.org/2000/svg" xmlns:xlink="http://www.w3.org/1999/xlink" x="0px" y="0px"
	 width="100%" viewBox="0 0 1024 1024" enable-background="new 0 0 1024 1024" xml:space="preserve">
<path fill="#000000" opacity="1.000000" stroke="none" 
	d="
M892.165283,97.567078 
	C920.014465,107.473511 936.522888,137.043076 936.495544,161.527283 
	C936.234558,395.338715 936.348816,629.150574 936.329224,862.962280 
	C936.326599,894.244446 916.198303,921.011353 887.019714,928.666931 
	C880.571716,930.358704 873.984680,931.328613 867.307068,931.329102 
	C630.328979,931.346130 393.350922,931.372314 156.372849,931.313171 
	C124.804817,931.305298 99.580124,911.996704 91.388130,882.069458 
	C90.291801,878.064392 89.621674,873.991943 89.622261,869.781738 
	C89.655327,633.636902 89.581619,397.491974 89.749443,161.347260 
	C89.768547,134.470261 101.134758,113.441330 125.527145,100.606171 
	C134.492188,95.888809 144.240692,93.676155 154.367111,93.674927 
	C393.011719,93.645874 631.656372,93.654205 870.300964,93.664978 
	C877.676514,93.665314 884.831360,95.014771 892.165283,97.567078 
M892.980225,148.572296 
	C886.810547,138.207748 877.658630,133.351807 865.636230,133.353302 
	C630.501587,133.382645 395.366943,133.375107 160.232300,133.394287 
	C158.078781,133.394470 155.874176,133.404160 153.779953,133.832520 
	C138.286621,137.001480 129.352676,148.462769 129.352264,165.105118 
	C129.346497,396.906891 129.434021,628.708801 129.169281,860.510254 
	C129.150360,877.070374 141.610153,892.140930 160.724121,892.098999 
	C328.200378,891.731384 495.677795,891.876038 663.154846,891.854370 
	C731.478638,891.845520 799.802490,891.781921 868.126282,891.811218 
	C873.290100,891.813477 878.021851,890.717102 882.357361,887.956299 
	C892.374451,881.577515 896.690247,872.304871 896.688416,860.571960 
	C896.652161,628.436890 896.658386,396.301819 896.693665,164.166763 
	C896.694458,158.888290 895.576599,153.953888 892.980225,148.572296 
z"/>
<path fill="#000000" opacity="1.000000" stroke="none" 
	d="
M199.062195,745.576782 
	C198.951080,732.216187 203.148651,720.285950 208.176025,708.671753 
	C225.696747,668.195679 248.865891,631.205566 277.224579,597.422791 
	C298.325867,572.285522 321.596466,549.551880 349.099487,531.414551 
	C364.839783,521.034302 381.755341,513.403564 400.568481,510.835358 
	C423.531433,507.700775 445.686188,510.866150 466.745697,520.697327 
	C484.019043,528.760986 499.721069,539.482178 515.543396,549.984985 
	C517.591187,551.344299 519.664551,552.665039 522.026123,554.198547 
	C523.258301,551.719482 522.847473,549.550415 522.847595,547.476868 
	C522.854309,440.982056 522.994751,334.486725 522.638855,227.993073 
	C522.592834,214.237869 533.413452,210.725174 542.163452,213.847214 
	C547.257507,215.664764 550.375977,219.319565 550.700500,224.492493 
	C550.989807,229.104080 553.581360,230.549194 557.224548,232.009415 
	C594.153076,246.810745 631.051636,261.687592 667.917053,276.645630 
	C682.572632,282.592072 697.129639,288.781799 711.717346,294.894501 
	C713.556091,295.665009 715.367737,296.539642 717.090698,297.540344 
	C724.955994,302.108582 725.091003,308.019867 717.146484,312.598999 
	C709.326965,317.105988 700.531555,319.386902 692.135437,322.542938 
	C646.966125,339.521820 601.751465,356.381195 556.489990,373.112640 
	C552.605774,374.548492 551.109192,376.338287 551.119263,380.600433 
	C551.267761,443.597015 551.282166,506.594086 551.152832,569.590698 
	C551.143860,573.970642 552.685913,576.286560 556.199951,578.820374 
	C580.120361,596.068298 607.508362,603.078369 636.051208,607.799805 
	C700.271606,618.422852 756.223999,645.029358 799.368286,695.196045 
	C808.738403,706.091248 816.881348,717.831238 821.619995,731.655945 
	C828.539734,751.843872 818.182983,763.700562 801.173828,769.023010 
	C797.864685,770.058472 794.378418,770.390381 790.829651,770.389526 
	C605.338623,770.344482 419.847565,770.335938 234.356567,770.429138 
	C226.616440,770.433044 219.553040,768.712097 212.854446,765.041199 
	C205.252441,760.875000 200.201630,754.874939 199.062195,745.576782 
z"/>
</svg>