<svg version="1.1" id="Layer_1" xmlns="http://www.w3.org/2000/svg" xmlns:xlink="http://www.w3.org/1999/xlink" x="0px" y="0px"
	 width="100%" viewBox="0 0 1024 1024" enable-background="new 0 0 1024 1024" xml:space="preserve">
<path fill="#FBFBFB" opacity="1.000000" stroke="none" 
	d="
M1025.000000,359.000000 
	C1025.000000,581.333313 1025.000000,803.166687 1025.000000,1025.000000 
	C683.666687,1025.000000 342.333344,1025.000000 1.000000,1025.000000 
	C1.000000,683.666687 1.000000,342.333344 1.000000,1.000000 
	C342.333344,1.000000 683.666687,1.000000 1025.000000,1.000000 
	C1025.000000,120.166664 1025.000000,239.333328 1025.000000,359.000000 
M89.922615,859.497131 
	C90.471382,866.757812 89.943321,874.299866 91.754837,881.230530 
	C99.710190,911.666748 125.476440,930.978516 157.286957,930.985168 
	C324.941803,931.020203 492.596680,931.022278 660.251526,931.026428 
	C728.580017,931.028137 796.908569,931.001831 865.237061,930.997803 
	C883.039124,930.996765 899.259338,926.351379 912.937988,914.526733 
	C928.609680,900.979248 935.715454,883.363708 935.891174,863.045898 
	C936.186707,828.884277 935.942688,794.718140 935.947632,760.553894 
	C935.976379,561.568054 935.999146,362.582214 936.082886,163.596375 
	C936.086853,154.193542 934.844055,145.139389 931.035522,136.481567 
	C920.647522,112.867058 903.377991,97.900978 877.268982,95.030403 
	C866.566589,93.853722 855.671265,94.244209 844.863647,94.239471 
	C615.880615,94.139076 386.897491,94.020035 157.914764,94.253319 
	C148.720322,94.262680 138.899551,96.211868 130.452545,99.802521 
	C102.927025,111.503029 90.094650,133.552856 90.080185,163.047729 
	C89.966507,394.864502 89.959991,626.681335 89.922615,859.497131 
z"/>
<path fill="#010101" opacity="1.000000" stroke="none" 
	d="
M89.921539,858.997681 
	C89.959991,626.681335 89.966507,394.864502 90.080185,163.047729 
	C90.094650,133.552856 102.927025,111.503029 130.452545,99.802521 
	C138.899551,96.211868 148.720322,94.262680 157.914764,94.253319 
	C386.897491,94.020035 615.880615,94.139076 844.863647,94.239471 
	C855.671265,94.244209 866.566589,93.853722 877.268982,95.030403 
	C903.377991,97.900978 920.647522,112.867058 931.035522,136.481567 
	C934.844055,145.139389 936.086853,154.193542 936.082886,163.596375 
	C935.999146,362.582214 935.976379,561.568054 935.947632,760.553894 
	C935.942688,794.718140 936.186707,828.884277 935.891174,863.045898 
	C935.715454,883.363708 928.609680,900.979248 912.937988,914.526733 
	C899.259338,926.351379 883.039124,930.996765 865.237061,930.997803 
	C796.908569,931.001831 728.580017,931.028137 660.251526,931.026428 
	C492.596680,931.022278 324.941803,931.020203 157.286957,930.985168 
	C125.476440,930.978516 99.710190,911.666748 91.754837,881.230530 
	C89.943321,874.299866 90.471382,866.757812 89.921539,858.997681 
M483.500031,133.107559 
	C376.178101,133.108246 268.856140,133.130920 161.534210,133.090149 
	C141.298569,133.082458 129.020920,145.162262 129.020950,165.418213 
	C129.021423,397.561523 129.024307,629.704834 129.022232,861.848145 
	C129.022079,880.336792 141.699036,892.967163 160.274887,892.966003 
	C327.258057,892.955750 494.241211,892.947144 661.224365,892.940308 
	C729.217529,892.937500 797.211060,892.807190 865.203552,893.024475 
	C884.783264,893.087036 897.158447,878.250000 897.143433,861.376770 
	C896.936340,628.900330 897.004883,396.423645 897.000916,163.947006 
	C897.000610,146.088501 884.095520,133.076340 866.461060,133.078125 
	C739.140747,133.090988 611.820374,133.098312 483.500031,133.107559 
z"/>
<path fill="#FBFBFB" opacity="1.000000" stroke="none" 
	d="
M484.000061,133.107483 
	C611.820374,133.098312 739.140747,133.090988 866.461060,133.078125 
	C884.095520,133.076340 897.000610,146.088501 897.000916,163.947006 
	C897.004883,396.423645 896.936340,628.900330 897.143433,861.376770 
	C897.158447,878.250000 884.783264,893.087036 865.203552,893.024475 
	C797.211060,892.807190 729.217529,892.937500 661.224365,892.940308 
	C494.241211,892.947144 327.258057,892.955750 160.274887,892.966003 
	C141.699036,892.967163 129.022079,880.336792 129.022232,861.848145 
	C129.024307,629.704834 129.021423,397.561523 129.020950,165.418213 
	C129.020920,145.162262 141.298569,133.082458 161.534210,133.090149 
	C268.856140,133.130920 376.178101,133.108246 484.000061,133.107483 
M572.500366,646.424988 
	C454.417450,646.424988 336.334534,646.424988 217.935593,646.424988 
	C220.162552,662.529358 222.310852,678.104309 224.471237,693.677612 
	C226.976456,711.736633 229.446762,729.800720 232.021835,747.849854 
	C233.400665,757.514282 234.236542,767.336609 236.617889,776.759033 
	C240.379913,791.644409 255.266815,807.557983 279.683960,807.473938 
	C393.837402,807.080811 507.992950,807.317383 622.147766,807.284790 
	C663.807678,807.272949 705.469971,807.376770 747.126282,806.948975 
	C764.882751,806.766663 781.831360,791.881592 784.873901,774.384094 
	C787.341797,760.191833 788.980652,745.855530 790.999390,731.584900 
	C793.530334,713.694092 796.097412,695.808350 798.602844,677.914001 
	C800.061829,667.493469 801.430603,657.060242 802.867920,646.426392 
	C726.128296,646.426392 649.814331,646.426392 572.500366,646.424988 
M383.990143,407.487915 
	C332.747620,451.009064 281.505096,494.530212 230.262573,538.051392 
	C230.485413,538.398621 230.708267,538.745911 230.931122,539.093140 
	C411.604095,539.093140 592.277100,539.093140 772.950012,539.093140 
	C773.147217,538.512146 773.344360,537.931091 773.541504,537.350098 
	C755.794678,528.488831 738.047791,519.627563 720.764893,510.997894 
	C730.066162,491.066132 739.487488,471.084259 748.703613,451.008209 
	C751.656311,444.576080 750.114868,439.002655 744.443665,434.775848 
	C741.827820,432.826172 738.843323,431.276825 735.847473,429.948608 
	C726.272461,425.703461 716.613831,421.646820 706.886047,417.473877 
	C719.459229,390.748627 731.915344,364.272339 744.327820,337.888611 
	C767.456604,338.195801 786.810608,330.266815 800.394287,311.773712 
	C808.255737,301.071106 814.061523,288.850403 820.656067,277.235504 
	C821.516846,275.719543 821.787292,273.761353 821.947937,271.973541 
	C822.650696,264.153687 818.875000,258.710907 810.232971,254.970734 
	C783.629822,243.457214 757.011414,231.978989 730.408936,220.463928 
	C717.509888,214.880493 707.534424,219.415359 703.425903,232.931015 
	C700.742493,241.758560 698.356812,250.676468 695.687744,259.508575 
	C691.184448,274.409882 691.614685,289.129608 698.741211,302.977844 
	C702.674438,310.620819 708.285645,317.400330 713.466858,325.051208 
	C701.408020,350.673157 688.877686,377.296906 676.347839,403.919556 
	C664.572144,398.691101 653.058044,393.459137 641.443176,388.461395 
	C632.867859,384.771606 626.176392,386.783997 622.818909,394.775909 
	C617.216797,408.110687 612.299744,421.732666 607.052368,435.217407 
	C605.818726,438.387604 606.779968,440.309906 609.370911,442.648285 
	C628.778259,460.163849 647.976196,477.911713 667.176575,495.655182 
	C668.444336,496.826752 669.192444,498.560577 670.595032,500.646790 
	C668.636719,500.844452 667.838257,500.976990 667.037781,500.991455 
	C666.208984,501.006439 665.364136,500.987335 664.550293,500.845459 
	C651.918396,498.643250 640.461731,493.663208 630.830750,485.216339 
	C611.805969,468.530640 593.015747,451.576660 574.178711,434.677704 
	C557.733459,419.924500 542.067261,404.229095 523.061035,392.592773 
	C496.534180,376.351990 468.283112,369.937347 437.648315,378.045990 
	C417.608368,383.350311 400.480804,394.147156 383.990143,407.487915 
M649.499695,625.640198 
	C705.828552,625.643188 762.157471,625.647339 818.486328,625.644470 
	C820.318237,625.644409 822.165527,625.713013 823.979431,625.512573 
	C832.206299,624.603333 836.979126,619.202698 836.993896,610.834534 
	C837.014526,599.168640 837.018372,587.502625 836.993103,575.836792 
	C836.971741,565.995544 831.867493,560.972595 821.891663,560.961548 
	C804.892761,560.942688 787.893921,560.945801 770.895020,560.945923 
	C580.407349,560.947327 389.919708,560.949219 199.432053,560.954224 
	C188.600800,560.954468 184.006042,565.544434 184.004044,576.325256 
	C184.001968,587.491211 184.001373,598.657166 184.003845,609.823120 
	C184.006165,620.207520 189.527786,625.686829 200.029633,625.685913 
	C349.519653,625.673401 499.009674,625.656372 649.499695,625.640198 
z"/>
<path fill="#010101" opacity="1.000000" stroke="none" 
	d="
M573.000366,646.425659 
	C649.814331,646.426392 726.128296,646.426392 802.867920,646.426392 
	C801.430603,657.060242 800.061829,667.493469 798.602844,677.914001 
	C796.097412,695.808350 793.530334,713.694092 790.999390,731.584900 
	C788.980652,745.855530 787.341797,760.191833 784.873901,774.384094 
	C781.831360,791.881592 764.882751,806.766663 747.126282,806.948975 
	C705.469971,807.376770 663.807678,807.272949 622.147766,807.284790 
	C507.992950,807.317383 393.837402,807.080811 279.683960,807.473938 
	C255.266815,807.557983 240.379913,791.644409 236.617889,776.759033 
	C234.236542,767.336609 233.400665,757.514282 232.021835,747.849854 
	C229.446762,729.800720 226.976456,711.736633 224.471237,693.677612 
	C222.310852,678.104309 220.162552,662.529358 217.935593,646.424988 
	C336.334534,646.424988 454.417450,646.424988 573.000366,646.425659 
z"/>
<path fill="#010101" opacity="1.000000" stroke="none" 
	d="
M384.251831,407.244568 
	C400.480804,394.147156 417.608368,383.350311 437.648315,378.045990 
	C468.283112,369.937347 496.534180,376.351990 523.061035,392.592773 
	C542.067261,404.229095 557.733459,419.924500 574.178711,434.677704 
	C593.015747,451.576660 611.805969,468.530640 630.830750,485.216339 
	C640.461731,493.663208 651.918396,498.643250 664.550293,500.845459 
	C665.364136,500.987335 666.208984,501.006439 667.037781,500.991455 
	C667.838257,500.976990 668.636719,500.844452 670.595032,500.646790 
	C669.192444,498.560577 668.444336,496.826752 667.176575,495.655182 
	C647.976196,477.911713 628.778259,460.163849 609.370911,442.648285 
	C606.779968,440.309906 605.818726,438.387604 607.052368,435.217407 
	C612.299744,421.732666 617.216797,408.110687 622.818909,394.775909 
	C626.176392,386.783997 632.867859,384.771606 641.443176,388.461395 
	C653.058044,393.459137 664.572144,398.691101 676.347839,403.919556 
	C688.877686,377.296906 701.408020,350.673157 713.466858,325.051208 
	C708.285645,317.400330 702.674438,310.620819 698.741211,302.977844 
	C691.614685,289.129608 691.184448,274.409882 695.687744,259.508575 
	C698.356812,250.676468 700.742493,241.758560 703.425903,232.931015 
	C707.534424,219.415359 717.509888,214.880493 730.408936,220.463928 
	C757.011414,231.978989 783.629822,243.457214 810.232971,254.970734 
	C818.875000,258.710907 822.650696,264.153687 821.947937,271.973541 
	C821.787292,273.761353 821.516846,275.719543 820.656067,277.235504 
	C814.061523,288.850403 808.255737,301.071106 800.394287,311.773712 
	C786.810608,330.266815 767.456604,338.195801 744.327820,337.888611 
	C731.915344,364.272339 719.459229,390.748627 706.886047,417.473877 
	C716.613831,421.646820 726.272461,425.703461 735.847473,429.948608 
	C738.843323,431.276825 741.827820,432.826172 744.443665,434.775848 
	C750.114868,439.002655 751.656311,444.576080 748.703613,451.008209 
	C739.487488,471.084259 730.066162,491.066132 720.764893,510.997894 
	C738.047791,519.627563 755.794678,528.488831 773.541504,537.350098 
	C773.344360,537.931091 773.147217,538.512146 772.950012,539.093140 
	C592.277100,539.093140 411.604095,539.093140 230.931122,539.093140 
	C230.708267,538.745911 230.485413,538.398621 230.262573,538.051392 
	C281.505096,494.530212 332.747620,451.009064 384.251831,407.244568 
M736.113098,298.480743 
	C746.861938,307.150818 760.644836,305.055664 766.444214,299.623383 
	C772.758179,293.709076 778.032043,286.684479 784.164429,279.681427 
	C765.606445,271.734619 748.272827,264.312073 730.632568,256.758240 
	C729.527161,261.923889 728.810608,266.654785 727.481628,271.206909 
	C724.336182,281.981140 727.439636,290.715332 736.113098,298.480743 
z"/>
<path fill="#020202" opacity="1.000000" stroke="none" 
	d="
M648.999695,625.640259 
	C499.009674,625.656372 349.519653,625.673401 200.029633,625.685913 
	C189.527786,625.686829 184.006165,620.207520 184.003845,609.823120 
	C184.001373,598.657166 184.001968,587.491211 184.004044,576.325256 
	C184.006042,565.544434 188.600800,560.954468 199.432053,560.954224 
	C389.919708,560.949219 580.407349,560.947327 770.895020,560.945923 
	C787.893921,560.945801 804.892761,560.942688 821.891663,560.961548 
	C831.867493,560.972595 836.971741,565.995544 836.993103,575.836792 
	C837.018372,587.502625 837.014526,599.168640 836.993896,610.834534 
	C836.979126,619.202698 832.206299,624.603333 823.979431,625.512573 
	C822.165527,625.713013 820.318237,625.644409 818.486328,625.644470 
	C762.157471,625.647339 705.828552,625.643188 648.999695,625.640259 
z"/>
<path fill="#F9F9FA" opacity="1.000000" stroke="none" 
	d="
M735.831055,298.251617 
	C727.439636,290.715332 724.336182,281.981140 727.481628,271.206909 
	C728.810608,266.654785 729.527161,261.923889 730.632568,256.758240 
	C748.272827,264.312073 765.606445,271.734619 784.164429,279.681427 
	C778.032043,286.684479 772.758179,293.709076 766.444214,299.623383 
	C760.644836,305.055664 746.861938,307.150818 735.831055,298.251617 
z"/>
</svg>